<svg width="32" height="24" viewBox="0 0 32 24" fill="none" xmlns="http://www.w3.org/2000/svg">
<mask id="path-1-inside-1_1252_534" fill="white">
<path d="M13 13C14.1046 13 15 13.8954 15 15V21C15 22.0357 14.2128 22.887 13.2041 22.9893L13 23H7L6.7959 22.9893C5.85435 22.8938 5.1062 22.1457 5.01074 21.2041L5 21V15C5 13.8954 5.89543 13 7 13H13ZM22 13C24.7614 13 27 15.2386 27 18C27 20.7614 24.7614 23 22 23C19.2386 23 17 20.7614 17 18C17 15.2386 19.2386 13 22 13ZM22 14.2998C19.9565 14.2998 18.2998 15.9565 18.2998 18C18.2998 20.0435 19.9565 21.7002 22 21.7002C24.0435 21.7002 25.7002 20.0435 25.7002 18C25.7002 15.9565 24.0435 14.2998 22 14.2998ZM7 14.2998C6.6134 14.2998 6.2998 14.6134 6.2998 15V21C6.2998 21.3866 6.6134 21.7002 7 21.7002H13C13.3866 21.7002 13.7002 21.3866 13.7002 21V15C13.7002 14.6134 13.3866 14.2998 13 14.2998H7ZM10 1C12.7614 1 15 3.23858 15 6C15 8.76142 12.7614 11 10 11C7.23858 11 5 8.76142 5 6C5 3.23858 7.23858 1 10 1ZM25 1C26.1046 1 27 1.89543 27 3V9C27 10.0357 26.2128 10.887 25.2041 10.9893L25 11H19L18.7959 10.9893C17.8543 10.8938 17.1062 10.1457 17.0107 9.2041L17 9V3C17 1.89543 17.8954 1 19 1H25ZM10 2.2998C7.95655 2.2998 6.2998 3.95655 6.2998 6C6.2998 8.04345 7.95655 9.7002 10 9.7002C12.0435 9.7002 13.7002 8.04345 13.7002 6C13.7002 3.95655 12.0435 2.2998 10 2.2998ZM19 2.2998C18.6134 2.2998 18.2998 2.6134 18.2998 3V9C18.2998 9.3866 18.6134 9.7002 19 9.7002H25C25.3866 9.7002 25.7002 9.3866 25.7002 9V3C25.7002 2.6134 25.3866 2.2998 25 2.2998H19Z"/>
</mask>
<path d="M15 15H16H15ZM13.2041 22.9893L13.2567 23.9879L13.2809 23.9866L13.305 23.9842L13.2041 22.9893ZM13 23V24H13.0263L13.0526 23.9986L13 23ZM7 23L6.94744 23.9986L6.9737 24H7V23ZM6.7959 22.9893L6.69503 23.9842L6.71914 23.9866L6.74334 23.9879L6.7959 22.9893ZM5.01074 21.2041L4.01212 21.2567L4.0134 21.2809L4.01584 21.305L5.01074 21.2041ZM5 21H4V21.0263L4.00138 21.0526L5 21ZM7 13V12V13ZM27 3H28H27ZM25.2041 10.9893L25.2567 11.9879L25.2809 11.9866L25.305 11.9842L25.2041 10.9893ZM25 11V12H25.0263L25.0526 11.9986L25 11ZM19 11L18.9474 11.9986L18.9737 12H19V11ZM18.7959 10.9893L18.695 11.9842L18.7191 11.9866L18.7433 11.9879L18.7959 10.9893ZM17.0107 9.2041L16.0121 9.25666L16.0134 9.28086L16.0158 9.30497L17.0107 9.2041ZM17 9H16V9.0263L16.0014 9.05256L17 9ZM19 1V0V1ZM13 13V14C13.5523 14 14 14.4477 14 15H15H16C16 13.3431 14.6569 12 13 12V13ZM15 15H14V21H15H16V15H15ZM15 21H14C14 21.5169 13.6068 21.9433 13.1032 21.9944L13.2041 22.9893L13.305 23.9842C14.8187 23.8307 16 22.5544 16 21H15ZM13.2041 22.9893L13.1515 21.9906L12.9474 22.0014L13 23L13.0526 23.9986L13.2567 23.9879L13.2041 22.9893ZM13 23V22H7V23V24H13V23ZM7 23L7.05256 22.0014L6.84846 21.9906L6.7959 22.9893L6.74334 23.9879L6.94744 23.9986L7 23ZM6.7959 22.9893L6.89676 21.9944C6.42771 21.9468 6.0532 21.5723 6.00564 21.1032L5.01074 21.2041L4.01584 21.305C4.1592 22.719 5.28098 23.8408 6.69503 23.9842L6.7959 22.9893ZM5.01074 21.2041L6.00936 21.1515L5.99862 20.9474L5 21L4.00138 21.0526L4.01212 21.2567L5.01074 21.2041ZM5 21H6V15H5H4V21H5ZM5 15H6C6 14.4477 6.44772 14 7 14V13V12C5.34315 12 4 13.3431 4 15H5ZM7 13V14H13V13V12H7V13ZM22 13V14C24.2091 14 26 15.7909 26 18H27H28C28 14.6863 25.3137 12 22 12V13ZM27 18H26C26 20.2091 24.2091 22 22 22V23V24C25.3137 24 28 21.3137 28 18H27ZM22 23V22C19.7909 22 18 20.2091 18 18H17H16C16 21.3137 18.6863 24 22 24V23ZM17 18H18C18 15.7909 19.7909 14 22 14V13V12C18.6863 12 16 14.6863 16 18H17ZM22 14.2998V13.2998C19.4043 13.2998 17.2998 15.4043 17.2998 18H18.2998H19.2998C19.2998 16.5088 20.5088 15.2998 22 15.2998V14.2998ZM18.2998 18H17.2998C17.2998 20.5957 19.4043 22.7002 22 22.7002V21.7002V20.7002C20.5088 20.7002 19.2998 19.4912 19.2998 18H18.2998ZM22 21.7002V22.7002C24.5957 22.7002 26.7002 20.5957 26.7002 18H25.7002H24.7002C24.7002 19.4912 23.4912 20.7002 22 20.7002V21.7002ZM25.7002 18H26.7002C26.7002 15.4043 24.5957 13.2998 22 13.2998V14.2998V15.2998C23.4912 15.2998 24.7002 16.5088 24.7002 18H25.7002ZM7 14.2998V13.2998C6.06112 13.2998 5.2998 14.0611 5.2998 15H6.2998H7.2998C7.2998 15.1657 7.16569 15.2998 7 15.2998V14.2998ZM6.2998 15H5.2998V21H6.2998H7.2998V15H6.2998ZM6.2998 21H5.2998C5.2998 21.9389 6.06112 22.7002 7 22.7002V21.7002V20.7002C7.16569 20.7002 7.2998 20.8343 7.2998 21H6.2998ZM7 21.7002V22.7002H13V21.7002V20.7002H7V21.7002ZM13 21.7002V22.7002C13.9389 22.7002 14.7002 21.9389 14.7002 21H13.7002H12.7002C12.7002 20.8343 12.8343 20.7002 13 20.7002V21.7002ZM13.7002 21H14.7002V15H13.7002H12.7002V21H13.7002ZM13.7002 15H14.7002C14.7002 14.0611 13.9389 13.2998 13 13.2998V14.2998V15.2998C12.8343 15.2998 12.7002 15.1657 12.7002 15H13.7002ZM13 14.2998V13.2998H7V14.2998V15.2998H13V14.2998ZM10 1V2C12.2091 2 14 3.79086 14 6H15H16C16 2.68629 13.3137 0 10 0V1ZM15 6H14C14 8.20914 12.2091 10 10 10V11V12C13.3137 12 16 9.31371 16 6H15ZM10 11V10C7.79086 10 6 8.20914 6 6H5H4C4 9.31371 6.68629 12 10 12V11ZM5 6H6C6 3.79086 7.79086 2 10 2V1V0C6.68629 0 4 2.68629 4 6H5ZM25 1V2C25.5523 2 26 2.44772 26 3H27H28C28 1.34315 26.6569 0 25 0V1ZM27 3H26V9H27H28V3H27ZM27 9H26C26 9.5169 25.6068 9.9433 25.1032 9.99436L25.2041 10.9893L25.305 11.9842C26.8187 11.8307 28 10.5544 28 9H27ZM25.2041 10.9893L25.1515 9.99064L24.9474 10.0014L25 11L25.0526 11.9986L25.2567 11.9879L25.2041 10.9893ZM25 11V10H19V11V12H25V11ZM19 11L19.0526 10.0014L18.8485 9.99064L18.7959 10.9893L18.7433 11.9879L18.9474 11.9986L19 11ZM18.7959 10.9893L18.8968 9.99436C18.4277 9.9468 18.0532 9.57229 18.0056 9.10324L17.0107 9.2041L16.0158 9.30497C16.1592 10.719 17.281 11.8408 18.695 11.9842L18.7959 10.9893ZM17.0107 9.2041L18.0094 9.15154L17.9986 8.94744L17 9L16.0014 9.05256L16.0121 9.25666L17.0107 9.2041ZM17 9H18V3H17H16V9H17ZM17 3H18C18 2.44772 18.4477 2 19 2V1V0C17.3431 0 16 1.34315 16 3H17ZM19 1V2H25V1V0H19V1ZM10 2.2998V1.2998C7.40426 1.2998 5.2998 3.40426 5.2998 6H6.2998H7.2998C7.2998 4.50883 8.50883 3.2998 10 3.2998V2.2998ZM6.2998 6H5.2998C5.2998 8.59574 7.40426 10.7002 10 10.7002V9.7002V8.7002C8.50883 8.7002 7.2998 7.49117 7.2998 6H6.2998ZM10 9.7002V10.7002C12.5957 10.7002 14.7002 8.59574 14.7002 6H13.7002H12.7002C12.7002 7.49117 11.4912 8.7002 10 8.7002V9.7002ZM13.7002 6H14.7002C14.7002 3.40426 12.5957 1.2998 10 1.2998V2.2998V3.2998C11.4912 3.2998 12.7002 4.50883 12.7002 6H13.7002ZM19 2.2998V1.2998C18.0611 1.2998 17.2998 2.06112 17.2998 3H18.2998H19.2998C19.2998 3.16569 19.1657 3.2998 19 3.2998V2.2998ZM18.2998 3H17.2998V9H18.2998H19.2998V3H18.2998ZM18.2998 9H17.2998C17.2998 9.93888 18.0611 10.7002 19 10.7002V9.7002V8.7002C19.1657 8.7002 19.2998 8.83431 19.2998 9H18.2998ZM19 9.7002V10.7002H25V9.7002V8.7002H19V9.7002ZM25 9.7002V10.7002C25.9389 10.7002 26.7002 9.93888 26.7002 9H25.7002H24.7002C24.7002 8.83431 24.8343 8.7002 25 8.7002V9.7002ZM25.7002 9H26.7002V3H25.7002H24.7002V9H25.7002ZM25.7002 3H26.7002C26.7002 2.06112 25.9389 1.2998 25 1.2998V2.2998V3.2998C24.8343 3.2998 24.7002 3.16569 24.7002 3H25.7002ZM25 2.2998V1.2998H19V2.2998V3.2998H25V2.2998Z" fill="#1C1C1C" mask="url(#path-1-inside-1_1252_534)"/>
</svg>
