<svg width="24" height="24" viewBox="0 0 24 24" fill="none" xmlns="http://www.w3.org/2000/svg">
<g clip-path="url(#clip0_1252_509)">
<path d="M16.3447 3.20959C17.8481 3.20972 19.2778 3.80197 20.3379 4.86194C22.1615 6.68551 22.533 9.49734 21.2002 11.694L21.1992 11.6959C20.9564 12.0844 20.6846 12.4543 20.3369 12.778L12.4414 20.6012C12.2222 20.8204 11.9028 20.8485 11.6582 20.6842L11.5586 20.6022L3.66602 12.7819C3.31671 12.4575 3.04438 12.0857 2.80078 11.6959L2.7998 11.694C1.46759 9.49828 1.81386 6.68553 3.66309 4.86096C4.7232 3.80134 6.15302 3.20959 7.65625 3.20959C9.88358 3.2096 11.3244 4.43287 12 5.23401C12.6755 4.43287 14.1172 3.20959 16.3447 3.20959ZM16.3447 4.47034C14.673 4.47034 13.2798 5.37519 12.5371 6.62854L12.5361 6.63049C12.2856 7.03767 11.691 7.03767 11.4404 6.63049L11.4385 6.62659C10.7201 5.37523 9.32832 4.47034 7.65625 4.47034C6.47284 4.47034 5.38204 4.93381 4.54492 5.74768L4.54395 5.7467C3.12931 7.16269 2.85328 9.3427 3.87207 11.0338L4.02051 11.2594C4.17639 11.484 4.35411 11.7022 4.54492 11.8932L12 19.277L19.4551 11.8932C19.7123 11.6358 19.9426 11.3585 20.126 11.0377L20.127 11.0358C21.1167 9.3712 20.9069 7.2737 19.5869 5.88049L19.4561 5.74768C18.6194 4.93422 17.5044 4.47047 16.3447 4.47034Z" fill="#1C1C1C" stroke="#1C1C1C" stroke-width="0.3"/>
<path d="M226.56 -88.8V315.36H-201.6V-88.8H226.56ZM228.48 -90.72H-203.52V317.28H228.48V-90.72Z" fill="#0000FF"/>
</g>
<defs>
<clipPath id="clip0_1252_509">
<rect width="24" height="24" fill="white"/>
</clipPath>
</defs>
</svg>
